# generated by cone.py
#  written by Benjamin Reh, 2012
# h=0.2 r2=0.04 r2=0.03 n=10
s 1
v 0.0 0.0 -0.1
v 0.0 0.03 -0.1
v 0.0176335575688 0.0242705098312 -0.1
vn 0.0 0.0 -1.0
vn 0.0 0.0 -1.0
vn 0.0 0.0 -1.0
f 1//1 2//2 3//3
v 0.0 0.0 0.1
v 0.0235114100917 0.032360679775 0.1
v 0.0 0.04 0.1
vn 0.0 0.0 1.0
vn 0.0 0.0 1.0
vn 0.0 0.0 1.0
f 4//4 5//5 6//6
v 0.0235114100917 0.032360679775 0.1
v 0.0 0.03 -0.1
v 0.0 0.04 0.1
vn 0.587785252292 0.809016994375 0
vn 0.0 1.0 0
vn 0.0 1.0 0
f 7//7 8//8 9//9
v 0.0235114100917 0.032360679775 0.1
v 0.0176335575688 0.0242705098312 -0.1
v 0.0 0.03 -0.1
vn 0.587785252292 0.809016994375 0
vn 0.587785252292 0.809016994375 0
vn 0.0 1.0 0
f 10//10 11//11 12//12
v 0.0 0.0 -0.1
v 0.0176335575688 0.0242705098312 -0.1
v 0.0285316954889 0.00927050983125 -0.1
vn 0.0 0.0 -1.0
vn 0.0 0.0 -1.0
vn 0.0 0.0 -1.0
f 13//13 14//14 15//15
v 0.0 0.0 0.1
v 0.0380422606518 0.012360679775 0.1
v 0.0235114100917 0.032360679775 0.1
vn 0.0 0.0 1.0
vn 0.0 0.0 1.0
vn 0.0 0.0 1.0
f 16//16 17//17 18//18
v 0.0380422606518 0.012360679775 0.1
v 0.0176335575688 0.0242705098312 -0.1
v 0.0235114100917 0.032360679775 0.1
vn 0.951056516295 0.309016994375 0
vn 0.587785252292 0.809016994375 0
vn 0.587785252292 0.809016994375 0
f 19//19 20//20 21//21
v 0.0380422606518 0.012360679775 0.1
v 0.0285316954889 0.00927050983125 -0.1
v 0.0176335575688 0.0242705098312 -0.1
vn 0.951056516295 0.309016994375 0
vn 0.951056516295 0.309016994375 0
vn 0.587785252292 0.809016994375 0
f 22//22 23//23 24//24
v 0.0 0.0 -0.1
v 0.0285316954889 0.00927050983125 -0.1
v 0.0285316954889 -0.00927050983125 -0.1
vn 0.0 0.0 -1.0
vn 0.0 0.0 -1.0
vn 0.0 0.0 -1.0
f 25//25 26//26 27//27
v 0.0 0.0 0.1
v 0.0380422606518 -0.012360679775 0.1
v 0.0380422606518 0.012360679775 0.1
vn 0.0 0.0 1.0
vn 0.0 0.0 1.0
vn 0.0 0.0 1.0
f 28//28 29//29 30//30
v 0.0380422606518 -0.012360679775 0.1
v 0.0285316954889 0.00927050983125 -0.1
v 0.0380422606518 0.012360679775 0.1
vn 0.951056516295 -0.309016994375 0
vn 0.951056516295 0.309016994375 0
vn 0.951056516295 0.309016994375 0
f 31//31 32//32 33//33
v 0.0380422606518 -0.012360679775 0.1
v 0.0285316954889 -0.00927050983125 -0.1
v 0.0285316954889 0.00927050983125 -0.1
vn 0.951056516295 -0.309016994375 0
vn 0.951056516295 -0.309016994375 0
vn 0.951056516295 0.309016994375 0
f 34//34 35//35 36//36
v 0.0 0.0 -0.1
v 0.0285316954889 -0.00927050983125 -0.1
v 0.0176335575688 -0.0242705098312 -0.1
vn 0.0 0.0 -1.0
vn 0.0 0.0 -1.0
vn 0.0 0.0 -1.0
f 37//37 38//38 39//39
v 0.0 0.0 0.1
v 0.0235114100917 -0.032360679775 0.1
v 0.0380422606518 -0.012360679775 0.1
vn 0.0 0.0 1.0
vn 0.0 0.0 1.0
vn 0.0 0.0 1.0
f 40//40 41//41 42//42
v 0.0235114100917 -0.032360679775 0.1
v 0.0285316954889 -0.00927050983125 -0.1
v 0.0380422606518 -0.012360679775 0.1
vn 0.587785252292 -0.809016994375 0
vn 0.951056516295 -0.309016994375 0
vn 0.951056516295 -0.309016994375 0
f 43//43 44//44 45//45
v 0.0235114100917 -0.032360679775 0.1
v 0.0176335575688 -0.0242705098312 -0.1
v 0.0285316954889 -0.00927050983125 -0.1
vn 0.587785252292 -0.809016994375 0
vn 0.587785252292 -0.809016994375 0
vn 0.951056516295 -0.309016994375 0
f 46//46 47//47 48//48
v 0.0 0.0 -0.1
v 0.0176335575688 -0.0242705098312 -0.1
v 3.67394039744e-18 -0.03 -0.1
vn 0.0 0.0 -1.0
vn 0.0 0.0 -1.0
vn 0.0 0.0 -1.0
f 49//49 50//50 51//51
v 0.0 0.0 0.1
v 4.89858719659e-18 -0.04 0.1
v 0.0235114100917 -0.032360679775 0.1
vn 0.0 0.0 1.0
vn 0.0 0.0 1.0
vn 0.0 0.0 1.0
f 52//52 53//53 54//54
v 4.89858719659e-18 -0.04 0.1
v 0.0176335575688 -0.0242705098312 -0.1
v 0.0235114100917 -0.032360679775 0.1
vn 1.22464679915e-16 -1.0 0
vn 0.587785252292 -0.809016994375 0
vn 0.587785252292 -0.809016994375 0
f 55//55 56//56 57//57
v 4.89858719659e-18 -0.04 0.1
v 3.67394039744e-18 -0.03 -0.1
v 0.0176335575688 -0.0242705098312 -0.1
vn 1.22464679915e-16 -1.0 0
vn 1.22464679915e-16 -1.0 0
vn 0.587785252292 -0.809016994375 0
f 58//58 59//59 60//60
v 0.0 0.0 -0.1
v 3.67394039744e-18 -0.03 -0.1
v -0.0176335575688 -0.0242705098312 -0.1
vn 0.0 0.0 -1.0
vn 0.0 0.0 -1.0
vn 0.0 0.0 -1.0
f 61//61 62//62 63//63
v 0.0 0.0 0.1
v -0.0235114100917 -0.032360679775 0.1
v 4.89858719659e-18 -0.04 0.1
vn 0.0 0.0 1.0
vn 0.0 0.0 1.0
vn 0.0 0.0 1.0
f 64//64 65//65 66//66
v -0.0235114100917 -0.032360679775 0.1
v 3.67394039744e-18 -0.03 -0.1
v 4.89858719659e-18 -0.04 0.1
vn -0.587785252292 -0.809016994375 0
vn 1.22464679915e-16 -1.0 0
vn 1.22464679915e-16 -1.0 0
f 67//67 68//68 69//69
v -0.0235114100917 -0.032360679775 0.1
v -0.0176335575688 -0.0242705098312 -0.1
v 3.67394039744e-18 -0.03 -0.1
vn -0.587785252292 -0.809016994375 0
vn -0.587785252292 -0.809016994375 0
vn 1.22464679915e-16 -1.0 0
f 70//70 71//71 72//72
v 0.0 0.0 -0.1
v -0.0176335575688 -0.0242705098312 -0.1
v -0.0285316954889 -0.00927050983125 -0.1
vn 0.0 0.0 -1.0
vn 0.0 0.0 -1.0
vn 0.0 0.0 -1.0
f 73//73 74//74 75//75
v 0.0 0.0 0.1
v -0.0380422606518 -0.012360679775 0.1
v -0.0235114100917 -0.032360679775 0.1
vn 0.0 0.0 1.0
vn 0.0 0.0 1.0
vn 0.0 0.0 1.0
f 76//76 77//77 78//78
v -0.0380422606518 -0.012360679775 0.1
v -0.0176335575688 -0.0242705098312 -0.1
v -0.0235114100917 -0.032360679775 0.1
vn -0.951056516295 -0.309016994375 0
vn -0.587785252292 -0.809016994375 0
vn -0.587785252292 -0.809016994375 0
f 79//79 80//80 81//81
v -0.0380422606518 -0.012360679775 0.1
v -0.0285316954889 -0.00927050983125 -0.1
v -0.0176335575688 -0.0242705098312 -0.1
vn -0.951056516295 -0.309016994375 0
vn -0.951056516295 -0.309016994375 0
vn -0.587785252292 -0.809016994375 0
f 82//82 83//83 84//84
v 0.0 0.0 -0.1
v -0.0285316954889 -0.00927050983125 -0.1
v -0.0285316954889 0.00927050983125 -0.1
vn 0.0 0.0 -1.0
vn 0.0 0.0 -1.0
vn 0.0 0.0 -1.0
f 85//85 86//86 87//87
v 0.0 0.0 0.1
v -0.0380422606518 0.012360679775 0.1
v -0.0380422606518 -0.012360679775 0.1
vn 0.0 0.0 1.0
vn 0.0 0.0 1.0
vn 0.0 0.0 1.0
f 88//88 89//89 90//90
v -0.0380422606518 0.012360679775 0.1
v -0.0285316954889 -0.00927050983125 -0.1
v -0.0380422606518 -0.012360679775 0.1
vn -0.951056516295 0.309016994375 0
vn -0.951056516295 -0.309016994375 0
vn -0.951056516295 -0.309016994375 0
f 91//91 92//92 93//93
v -0.0380422606518 0.012360679775 0.1
v -0.0285316954889 0.00927050983125 -0.1
v -0.0285316954889 -0.00927050983125 -0.1
vn -0.951056516295 0.309016994375 0
vn -0.951056516295 0.309016994375 0
vn -0.951056516295 -0.309016994375 0
f 94//94 95//95 96//96
v 0.0 0.0 -0.1
v -0.0285316954889 0.00927050983125 -0.1
v -0.0176335575688 0.0242705098312 -0.1
vn 0.0 0.0 -1.0
vn 0.0 0.0 -1.0
vn 0.0 0.0 -1.0
f 97//97 98//98 99//99
v 0.0 0.0 0.1
v -0.0235114100917 0.032360679775 0.1
v -0.0380422606518 0.012360679775 0.1
vn 0.0 0.0 1.0
vn 0.0 0.0 1.0
vn 0.0 0.0 1.0
f 100//100 101//101 102//102
v -0.0235114100917 0.032360679775 0.1
v -0.0285316954889 0.00927050983125 -0.1
v -0.0380422606518 0.012360679775 0.1
vn -0.587785252292 0.809016994375 0
vn -0.951056516295 0.309016994375 0
vn -0.951056516295 0.309016994375 0
f 103//103 104//104 105//105
v -0.0235114100917 0.032360679775 0.1
v -0.0176335575688 0.0242705098312 -0.1
v -0.0285316954889 0.00927050983125 -0.1
vn -0.587785252292 0.809016994375 0
vn -0.587785252292 0.809016994375 0
vn -0.951056516295 0.309016994375 0
f 106//106 107//107 108//108
v 0.0 0.0 -0.1
v -0.0176335575688 0.0242705098312 -0.1
v -7.34788079488e-18 0.03 -0.1
vn 0.0 0.0 -1.0
vn 0.0 0.0 -1.0
vn 0.0 0.0 -1.0
f 109//109 110//110 111//111
v 0.0 0.0 0.1
v -9.79717439318e-18 0.04 0.1
v -0.0235114100917 0.032360679775 0.1
vn 0.0 0.0 1.0
vn 0.0 0.0 1.0
vn 0.0 0.0 1.0
f 112//112 113//113 114//114
v -9.79717439318e-18 0.04 0.1
v -0.0176335575688 0.0242705098312 -0.1
v -0.0235114100917 0.032360679775 0.1
vn -2.44929359829e-16 1.0 0
vn -0.587785252292 0.809016994375 0
vn -0.587785252292 0.809016994375 0
f 115//115 116//116 117//117
v -9.79717439318e-18 0.04 0.1
v -7.34788079488e-18 0.03 -0.1
v -0.0176335575688 0.0242705098312 -0.1
vn -2.44929359829e-16 1.0 0
vn -2.44929359829e-16 1.0 0
vn -0.587785252292 0.809016994375 0
f 118//118 119//119 120//120
